<svg xmlns="http://www.w3.org/2000/svg" xmlns:xlink="http://www.w3.org/1999/xlink" width="500" zoomAndPan="magnify" viewBox="0 0 375 374.999991" height="500" preserveAspectRatio="xMidYMid meet" version="1.0"><defs><clipPath id="f73dc360c3"><path d="M 107 111 L 267 111 L 267 254.214844 L 107 254.214844 Z M 107 111 " clip-rule="nonzero"/></clipPath></defs><rect x="-37.5" width="450" fill="#ffffff" y="-37.499999" height="449.999989" fill-opacity="1"/><rect x="-37.5" width="450" fill="#ffffff" y="-37.499999" height="449.999989" fill-opacity="1"/><rect x="-37.5" width="450" fill="#ffffff" y="-37.499999" height="449.999989" fill-opacity="1"/><g clip-path="url(#f73dc360c3)"><path fill="#e71f69" d="M 173.679688 149.546875 C 173.679688 149.546875 170.804688 154.535156 169.519531 162.613281 C 166.742188 159.3125 163.929688 155.832031 162.1875 153.300781 C 157.976562 147.199219 153.449219 145.753906 148.820312 139.890625 C 144.191406 134.023438 140.421875 130.289062 147.804688 127.246094 C 155.1875 124.207031 170.054688 141.199219 172.515625 143.441406 C 173.566406 144.398438 174.390625 145.035156 175.265625 145.820312 L 175.269531 146.949219 C 175.269531 146.949219 174.210938 148.507812 173.679688 149.546875 Z M 259.273438 140.808594 C 251.375 129.515625 238.179688 121.277344 224.195312 121.609375 C 211.449219 121.914062 199.824219 129.066406 191.980469 138.839844 C 191.074219 139.964844 190.222656 141.121094 189.421875 142.3125 C 189.039062 141.144531 188.617188 139.992188 188.152344 138.847656 C 183.34375 127.074219 174.015625 116.761719 161.632812 112.9375 C 148.273438 108.8125 133.328125 113.15625 122.636719 121.871094 C 111.171875 131.21875 105.78125 144.515625 107.761719 159.109375 C 111.707031 188.238281 133.707031 212.644531 153.023438 233.488281 C 159.667969 240.65625 166.570312 247.589844 173.832031 254.136719 C 177.195312 252.476562 180.527344 250.753906 183.828125 248.96875 C 188.183594 250.351562 197.5625 252.980469 201.8125 251.410156 C 201.8125 251.410156 198.351562 250.511719 196.296875 249.695312 C 196.296875 249.695312 193.339844 248.683594 188.769531 246.234375 C 187.574219 245.59375 186.273438 244.855469 184.882812 244.015625 C 177.234375 239.363281 166.957031 231.503906 158.015625 219.144531 C 158.015625 219.144531 156.914062 217.597656 155.582031 214.5 C 154.253906 211.398438 147.230469 205.238281 145.1875 202.761719 C 143.144531 200.28125 130.914062 191.390625 127.484375 184.855469 C 124.058594 178.324219 128.71875 174.894531 132.167969 176.398438 C 135.621094 177.90625 141.375 183.042969 145.59375 188.011719 C 145.59375 188.011719 155.5 195.167969 159.746094 199.738281 C 159.746094 199.738281 161.058594 197.222656 156.109375 192.132812 C 151.15625 187.050781 140.152344 177.339844 135.785156 170.628906 C 135.785156 170.628906 126.191406 161.816406 124.492188 158.292969 C 122.785156 154.765625 125.9375 147.890625 133.1875 150.726562 C 133.1875 150.726562 140.46875 158.039062 145.667969 163.410156 C 150.867188 168.78125 165.46875 183.746094 165.785156 184.972656 C 166.105469 186.195312 166.792969 183.96875 166.792969 183.96875 C 166.792969 183.96875 154.476562 170.898438 150.996094 165.910156 C 147.511719 160.925781 139.503906 153.496094 139.503906 153.496094 C 139.503906 153.496094 122.265625 138.816406 129.421875 134.222656 C 136.578125 129.628906 143.6875 138.46875 150.046875 145.453125 C 156.410156 152.441406 160.890625 155.554688 167.296875 163.878906 C 167.9375 164.710938 168.535156 165.492188 169.085938 166.222656 C 168.863281 168.902344 168.839844 171.835938 169.140625 174.972656 C 169.140625 174.972656 169.242188 175.96875 169.792969 177.660156 C 170.347656 179.351562 169.707031 184.238281 169.765625 185.933594 C 169.816406 187.628906 168.058594 195.40625 168.980469 199.191406 C 169.902344 202.976562 172.949219 202.71875 173.796875 200.921875 C 174.644531 199.125 175.132812 195.089844 175.074219 191.652344 C 175.074219 191.652344 176.507812 185.367188 176.605469 182.082031 C 176.605469 182.082031 178.003906 182.625 177.8125 186.363281 C 177.621094 190.101562 176.636719 197.78125 177.246094 201.964844 C 177.246094 201.964844 176.511719 208.789062 177.070312 210.785156 C 177.621094 212.777344 181.273438 214.414062 183.167969 210.773438 C 183.167969 210.773438 183.503906 205.335938 183.691406 201.398438 C 183.886719 197.460938 184.460938 186.449219 184.160156 185.851562 C 183.855469 185.253906 184.90625 185.902344 184.90625 185.902344 C 184.90625 185.902344 184.578125 195.367188 184.9375 198.558594 C 185.292969 201.746094 184.707031 207.476562 184.707031 207.476562 C 184.707031 207.476562 182.984375 219.292969 187.433594 218.636719 C 191.878906 217.976562 191.613281 211.996094 191.703125 207.011719 C 191.792969 202.027344 192.484375 199.234375 192.125 193.707031 C 191.761719 188.175781 191.40625 186.433594 191.957031 185.734375 C 192.503906 185.035156 193.402344 185.683594 193.40625 186.628906 C 193.40625 187.574219 193.328125 195.796875 193.785156 199.679688 C 194.246094 203.566406 192.949219 205.714844 193.160156 209.652344 C 193.367188 213.585938 193.171875 216.378906 197.171875 215.023438 C 201.167969 213.667969 201.140625 201.761719 201.335938 200.011719 C 201.53125 198.269531 201.828125 197.671875 201.621094 194.53125 C 201.417969 191.394531 201.667969 184.515625 201.667969 184.515625 C 201.667969 184.515625 202.433594 178.984375 202.535156 177.539062 C 202.589844 176.679688 203.128906 175.601562 203.550781 174.875 C 203.839844 174.378906 204.074219 174.042969 204.074219 174.042969 C 204.074219 174.042969 204.777344 175.191406 205.328125 175.734375 C 205.328125 175.734375 205.332031 175.753906 205.335938 175.789062 C 205.460938 176.617188 207.058594 186.269531 215.003906 188.917969 C 215.003906 188.917969 220.660156 190.898438 220.949219 186.964844 C 220.949219 186.964844 217.394531 184.675781 216.386719 180.546875 C 215.375 176.410156 213.773438 175.417969 213.617188 172.628906 C 213.464844 169.835938 215.351562 166.242188 210.84375 162.21875 L 203.425781 148.269531 C 203.914062 146.246094 204.703125 144.214844 205.863281 142.230469 C 205.863281 142.230469 211.433594 132.378906 216.777344 137.621094 C 216.777344 137.621094 214.574219 145.296875 218.308594 152.4375 C 222.046875 159.578125 221.007812 162.984375 224.277344 167.152344 C 227.546875 171.320312 234.734375 174.082031 233.355469 185.421875 L 238.316406 206.367188 L 239.617188 211.863281 L 241.417969 219.464844 C 241.925781 216.335938 241.828125 212.835938 241.59375 210.066406 C 250.71875 201.597656 258.464844 191.96875 263.398438 180.679688 C 269.296875 167.179688 267.742188 152.917969 259.273438 140.808594 " fill-opacity="1" fill-rule="nonzero"/></g></svg>