<svg clip-rule="evenodd" fill-rule="evenodd" height="512" image-rendering="optimizeQuality" shape-rendering="geometricPrecision" text-rendering="geometricPrecision" viewBox="0 0 43.3492 43.3492" width="512" xmlns="http://www.w3.org/2000/svg"><g id="Layer_x0020_1"><path d="m18.7919 40.4666c-10.3656 0-18.7919-8.4264-18.7919-18.792s8.4263-18.792 18.7919-18.792c5.085 0 9.8349 1.9757 13.4019 5.6001 3.0974-1.8032 6.6381-3.1195 10.6082-3.4848.5545-.065.7595.7569.2468.9872-.0839.0336-3.8499 1.7537-8.4919 5.431 1.9976 3.045 3.0273 6.5873 3.0273 10.2584-.0002 10.3657-8.4266 18.7921-18.7923 18.7921zm12.5242-31.4525c-3.3396-3.3254-7.7533-5.1443-12.5242-5.1443-9.8014.0351-17.7695 8.0033-17.7695 17.8048s7.9681 17.7697 17.7697 17.7697c9.8015 0 17.7696-7.9682 17.7696-17.7697 0-3.4289-.9746-6.7318-2.8047-9.6125-.7127.5875-1.4416 1.2198-2.1772 1.8979 5.8621 9.609-.9888 22.6284-12.7879 22.6284-8.2149 0-14.9137-6.6989-14.9137-14.9138s6.6988-14.9138 14.9137-14.9138c3.7716 0 7.3466 1.4082 10.0941 3.9405.7749-.5904 1.5848-1.1562 2.4301-1.6872zm2.0821 1.9998c.0645-.1022.1652-.1825.279-.2256 2.4368-1.9562 4.6538-3.392 6.2691-4.3449-9.9073 2.2212-16.7472 10.5419-20.0614 15.5837-.2078.2957-.6751.2774-.8461-.0352-.9872-1.657-3.8431-5.7822-6.029-5.7822-.1058 0-.2115 0-.3173.0353-1.516.3172-1.8334.9872-1.9744 1.6217-.1411.5995-.0353.8462.8814 1.4455 3.8782 2.468 6.6284 7.8272 7.6861 10.1894 2.8074-6.7674 7.0362-12.0049 11.1254-15.8685.0558-.1329.1718-.2357.3065-.2872.9082-.8445 1.8074-1.6216 2.6807-2.332zm-14.1126 20.3211c-.2115 0-.3878-.141-.4583-.3173-.0352-.0705-3.0674-7.8976-7.7566-10.8592-.9167-.5641-1.6217-1.1635-1.3397-2.5033.282-1.3045 1.1635-2.0449 2.75-2.3975 2.8205-.5994 5.8526 3.7725 6.9809 5.5707 1.9385-2.8212 4.8289-6.432 8.6288-9.5029-2.5575-2.3042-5.8485-3.5773-9.2989-3.5773-7.6508 0-13.8913 6.2404-13.8913 13.8913 0 7.6508 6.2405 13.8913 13.8913 13.8913s13.8913-6.2405 13.8913-13.8913c0-2.4513-.6493-4.8436-1.8667-6.9611-4.1311 3.966-8.3679 9.3691-11.0373 16.3746-.1057.1762-.282.282-.4935.282z"/><path d="m11.5995 19.3122c3.8782 2.468 6.6284 7.8272 7.6861 10.1894 2.8074-6.7674 7.0362-12.0049 11.1254-15.8685.0558-.1329.1718-.2357.3065-.2872.9082-.8445 1.8074-1.6216 2.6807-2.332.0645-.1022.1652-.1825.279-.2256 2.4368-1.9562 4.6538-3.392 6.2691-4.3449-9.9073 2.2212-16.7472 10.5419-20.0614 15.5837-.2078.2957-.6751.2774-.8461-.0352-.9872-1.657-3.8431-5.7822-6.029-5.7822-.1058 0-.2115 0-.3173.0353-1.516.3172-1.8334.9872-1.9744 1.6217-.1411.5995-.0353.8462.8814 1.4455z" fill="#00b42c"/><path d="m18.7919 36.5884c-8.2149 0-14.9137-6.6989-14.9137-14.9138s6.6988-14.9138 14.9137-14.9138c3.7716 0 7.3466 1.4082 10.0941 3.9405.7749-.5904 1.5848-1.1562 2.4301-1.6872-3.3396-3.3254-7.7533-5.1443-12.5242-5.1443-9.8014.0351-17.7695 8.0033-17.7695 17.8048s7.9681 17.7697 17.7697 17.7697c9.8015 0 17.7696-7.9682 17.7696-17.7697 0-3.4289-.9746-6.7318-2.8047-9.6125-.7127.5875-1.4416 1.2198-2.1772 1.8979 5.8621 9.609-.9888 22.6284-12.7879 22.6284z" fill="#9ed781"/></g></svg>